<?xml version="1.0"?><svg width="640" height="480" xmlns="http://www.w3.org/2000/svg" xmlns:xlink="http://www.w3.org/1999/xlink">
 <title>crossed hammer and wrench black</title>
 <defs>
  <clipPath clipPathUnits="userSpaceOnUse" id="clipoutline1">
   <path id="outline1" d="m22.42,17.200001l12.960001,12.949999l-2.5,8.780001l-8.780001,2.5l-12.96,-12.960001l-5.86,5.860003l14.89,21.459999l17.559999,-3.34l61.630001,65.619999c9.440002,9.51001 22.169998,-4.75 13.339996,-12.870003l-65.849998,-62.279999l4.010002,-17.759998l-22.140001,-14.27l-6.299999,6.31zm81.060011,91.96999c1.68,-1.68 4.399986,-1.68 6.079987,0c1.68,1.68 1.68,4.400009 0,6.080009c-1.68,1.669991 -4.399986,1.669991 -6.079987,0c-1.68,-1.68 -1.68,-4.400009 0,-6.080009z"/>
  </clipPath>
  <clipPath clipPathUnits="userSpaceOnUse" id="clipoutline2">
   <path id="outline2" d="m55.799999,12l0.760002,0.16c8.84,-2.94 28.679996,8.639999 24.259998,18.960001c-1.120003,1.620001 -0.93,4.499998 0.419998,6.309999l-24.809998,24.82c-1.389999,-1.389999 -4.48,-1.360001 -5.900002,0l-41.029999,39.379997c-3.74,3.590004 -0.8,6.639999 0.78,8.25l7.36,7.360001c1.610001,1.599998 5.860001,3.760002 8.880001,0.560005l38.719997,-40.810005c1.349998,-1.419998 1.360001,-4.470001 0,-5.869995c0,0 0.010002,-0.020004 0,-0.020004l24.910004,-24.899998c2.629997,2.369999 5.113815,2.574848 7.470001,1.93c4.550568,-1.24543 7.08725,3.206638 9.809998,6.459999l-1.230003,1.209999c-1.82,1.84 -1.649994,4.940002 0.389999,6.98c2.040001,2.040001 5.150002,2.209999 6.970001,0.389999l8.139999,-8.129997c1.82,-1.84 1.650002,-4.940002 -0.399994,-6.970001c-1.840004,-1.849998 -4.510002,-2.09 -6.370003,-0.77c-5.580002,-6.259998 -2.650002,-7.200001 -10.010002,-15.349998l-13.790001,-14.09c-9.93,-9.740001 -22.829994,-9.73 -35.329998,-5.860001z"/>
  </clipPath>
  <!-- -->
 </defs>
 <g>
  <title>Layer 1</title>
  <g id="configuration">
   <g id="spanner">
    <use xlink:href="#outline1" class="outline-big" y="90" x="55" fill="#000000" transform="translate(60.1992, 99.582) scale(2.47756, 2.27194) translate(-60.1992, -99.582)"/>
    <use xlink:href="#outline1" class="outline-small" y="90" x="55" fill="#000000" transform="translate(60.1992, 99.582) scale(2.47756, 2.27194) translate(-60.1992, -99.582)"/>
    <use xlink:href="#outline1" class="aluminium4" y="90" x="55" fill="#000000" transform="translate(60.1992, 99.582) scale(2.47756, 2.27194) translate(-60.1992, -99.582)"/>
    <use class="stroke-highlight" xlink:href="#outline1" clip-path="url(#clipoutline1)" y="90" x="55" fill="#000000" transform="translate(60.1992, 99.582) scale(2.47756, 2.27194) translate(-60.1992, -99.582)"/>
    <path class="high-specularity" d="m107.596893,112.800102l33.323166,30.398521l-8.250275,26.558975l-27.129288,7.429245l-33.615685,-31.216446l-11.723652,10.314606l35.181347,45.302429l46.825897,-9.405823l154.847504,150.765839c18.581696,18.857086 50.046692,-6.066071 27.600006,-26.354462l-165.748764,-143.359329l9.563385,-39.009171l-49.452103,-31.875298l-11.421539,10.450912zm198.130463,211.97184c4.137512,-3.794128 11.471069,-4.543884 15.608643,-0.68158c4.211853,3.794159 7.581329,10.519073 1.610413,17.811981c-4.955139,4.543884 -12.883331,4.362152 -17.83844,-0.545258c-4.162323,-3.816833 -3.592468,-12.72287 0.619385,-16.585144z" fill="#000000"/>
    <path class="specularity" d="m107.274788,112.845543l58.148338,53.731346l7.977753,-31.511795l-54.754082,-32.715904l-11.372009,10.496353z" fill="#000000"/>
   </g>
   <path class="low-shade" d="m222.577957,226.669617l11.473572,9.723938c0.941483,9.814758 -1.808609,12.76828 -19.399277,26.445343l-21.307022,-20.947266l29.210449,-15.222015l0,0l0.022278,0z" fill="#000000"/>
   <g id="hammer">
    <use xlink:href="#outline2" class="outline-big" y="90" x="55" fill="#000000" transform="translate(60.1992, 99.582) scale(2.47756, 2.27194) translate(-60.1992, -99.582)"/>
    <use xlink:href="#outline2" class="outline-small stroke-aluminium5" y="90" x="55" fill="#000000" transform="translate(60.1992, 99.582) scale(2.47756, 2.27194) translate(-60.1992, -99.582)"/>
    <path class="aluminium2" d="m252.757111,159.034042l-72.964127,66.908585l21.876862,20.061218l72.964127,-66.88588l-21.876862,-20.083923z" fill="#000000"/>
    <path class="specularity" d="m267.647247,172.688385l-72.964142,66.885864l6.98674,6.429596l72.964127,-66.88588l-6.986725,-6.429581z" fill="#000000"/>
    <path d="m261.527649,161.964844l-72.666794,66.635941l9.389938,8.610672l70.808685,-68.33992l-7.53183,-6.906693z" fill="#000000"/>
    <path class="aluminium6" d="m185.565704,105.075508l1.882935,0.363525c21.901627,-6.679512 71.056396,19.629539 60.105621,43.075935c-2.774887,3.680557 -2.304153,10.223709 1.040543,14.335938l22.075058,19.924881c6.515991,5.384521 12.66037,5.838898 18.507385,4.384857c11.272888,-2.79451 17.541138,7.270203 24.30484,14.676712l-3.047363,2.749054c-4.509155,4.180359 -4.087982,11.223389 0.966248,15.858124c5.05423,4.634766 12.759399,5.020966 17.268585,0.886047l20.167328,-18.470825c4.509155,-4.180389 4.088013,-11.223389 -0.990997,-15.835419c-4.558746,-4.203094 -11.173798,-4.748383 -15.782074,-1.749405c-13.824768,-14.222321 -6.565521,-16.357941 -24.800385,-34.874268l-34.165527,-32.011597c-24.602188,-22.128677 -56.562698,-22.105972 -87.532196,-13.31356z" fill="#000000"/>
    <path class="specularity" d="m332.063812,185.274933c-13.824768,-14.222321 -6.565521,-16.357941 -24.800385,-34.874268l-34.165527,-32.011597c-14.097321,-12.677422 -30.622681,-18.084625 -47.965576,-18.766205l101.902039,94.353607l7.371613,-6.202423l-2.342163,-2.499115z" fill="#000000"/>
    <path class="low-specularity" d="m249.115097,141.426514c0.123886,2.271942 -0.444321,4.543884 -1.610397,7.088455c-2.725327,3.680557 -2.254593,10.223709 1.090103,14.335938l22.075058,19.924881c6.515991,5.384521 12.66037,5.838898 18.507385,4.384857c2.675751,-0.749741 5.10376,-0.613434 7.383148,0c6.937134,1.749374 -47.470062,-46.688339 -47.445297,-45.961319l0,0.227188z" fill="#000000"/>
    <path d="m187.126556,219.240402c-3.443802,-3.15799 -11.099472,-3.089828 -14.617615,0l-101.654282,89.468948c-9.266071,8.15625 -2.031593,15.085632 1.932503,18.7435l18.23484,16.721436c3.988869,3.635101 14.518494,8.542511 22.00074,1.272308l95.931114,-92.717834c3.344696,-3.22612 3.369476,-10.155563 0,-13.336273c0,0 0.02478,-0.04541 0,-0.04541l-21.827301,-20.106674z" fill="#000000"/>
    <path class="low-shade" d="m72.762398,327.430115l18.234825,16.744171c3.988869,3.635101 14.196426,8.83786 21.67865,1.613068l96.302765,-93.081268c3.344696,-3.248886 3.443802,-10.223724 0,-13.359009l-21.876862,-20.083954l-114.339378,108.166992z" fill="#000000"/>
    <path class="specularity" d="m174.168915,227.078583l-96.327538,86.42453c-4.013649,3.54425 -2.650986,8.519775 0.247749,11.109802l10.232346,9.019592l104.974197,-99.056519l-9.712021,-8.360718c-2.081146,-1.817581 -6.93718,-1.295013 -9.414734,0.863312z" fill="#000000"/>
    <use class="stroke-highlight" xlink:href="#outline2" clip-path="url(#clipoutline2)" y="90" x="55" fill="#000000" transform="translate(60.1992, 99.582) scale(2.47756, 2.27194) translate(-60.1992, -99.582)"/>
    <path d="m345.739929,189.727921c3.741119,3.271591 4.459625,7.815475 -0.693695,12.177582l-9.588165,8.247147c-5.15332,4.430283 -18.631256,-7.383789 -13.502686,-11.791351l9.612946,-8.247162c5.12854,-4.430267 10.430511,-3.657776 14.1716,-0.386215z" fill="#000000"/>
   </g>
  </g>
 </g>
</svg>